/* XPM */
static char *ee987937dcbf477999093774c41665bbpMzMuGbzdG5EUl8h[] = {
/* columns rows colors chars-per-pixel */
"20 20 3 1 ",
"  c None",
". c #1A1A1C",
"X c #F2EBD5",
/* pixels */
"        XXXX        ",
"       XXXXXX       ",
"     XXXX..XXXX     ",
"    XXXXX..XXXXX    ",
"   XXX........XXX   ",
"  XXX..........XXX  ",
"  XX...XX..XX...XX  ",
" XXX..XXX..XXX..XXX ",
"XXXX..XXXXXXXX..XXXX",
"XX......X..X......XX",
"XX......X..X......XX",
"XXXX..XXXXXXXX..XXXX",
" XXX..XXX..XXX..XXX ",
"  XX...XX..XX...XX  ",
"  XXX..........XXX  ",
"   XXX........XXX   ",
"    XXXXX..XXXXX    ",
"     XXXX..XXXX     ",
"       XXXXXX       ",
"        XXXX        "
};
