/* XPM */
static char *_65c746f09934c71f8381ba87660ec11uRNNI2Nc9nIefisB[] = {
/* columns rows colors chars-per-pixel */
"16 16 2 1 ",
"  c None",
". c #C40424",
/* pixels */
"       .        ",
"       .        ",
"       .        ",
"       .        ",
"       .        ",
"       .        ",
"       .        ",
"                ",
"......   .......",
"                ",
"       .        ",
"       .        ",
"       .        ",
"       .        ",
"       .        ",
"       .        "
};
