/* XPM */
static char *_36efee881bd417f9dc3f6d52178f9a5NryilYrvCuHibJlN[] = {
/* columns rows colors chars-per-pixel */
"64 64 181 2 ",
"   c None",
".  c #E7354D",
"X  c #E6364D",
"o  c #E7364D",
"O  c #E6354F",
"+  c #E6374E",
"@  c #E6364F",
"#  c #E6374F",
"$  c #E6384F",
"%  c #E6394F",
"&  c #E63950",
"*  c #E53B51",
"=  c #E63A51",
"-  c #E53B52",
";  c #E73D50",
":  c #E73E50",
">  c #E74050",
",  c #E74451",
"<  c #E74551",
"1  c #E74651",
"2  c #E44056",
"3  c #E44156",
"4  c #E44157",
"5  c #E44358",
"6  c #E44359",
"7  c #E2495E",
"8  c #E95854",
"9  c #E95954",
"0  c #EA6256",
"q  c #EB6A57",
"w  c #EB6B57",
"e  c #EC785A",
"r  c #EC795A",
"t  c #ED7F5B",
"y  c #DF5669",
"u  c #DE5B6E",
"i  c #DE5C6E",
"p  c #E24B60",
"a  c #E24C60",
"s  c #E05165",
"d  c #E05265",
"f  c #E05467",
"g  c #E05468",
"h  c #E05568",
"j  c #DD6072",
"k  c #DD6172",
"l  c #DD6173",
"z  c #DC6677",
"x  c #DB6778",
"c  c #DB6878",
"v  c #DB6879",
"b  c #ED805B",
"n  c #EF8E5D",
"m  c #EF8F5D",
"M  c #EF965F",
"N  c #EF975F",
"B  c #F1AB62",
"V  c #F1AC62",
"C  c #F2B163",
"Z  c #F2B664",
"A  c #F4C566",
"S  c #F4C667",
"D  c #F4C767",
"F  c #F5CF67",
"G  c #F6CF66",
"H  c #F6CF67",
"J  c #F5CC68",
"K  c #F5CD68",
"L  c #F5CE68",
"P  c #F5CF68",
"I  c #F5D068",
"U  c #F5D168",
"Y  c #F3D06D",
"T  c #EDD279",
"R  c #EED279",
"E  c #EDD27A",
"W  c #EDD27B",
"Q  c #EED27A",
"!  c #F1D171",
"~  c #D97281",
"^  c #D97282",
"/  c #D97382",
"(  c #D58591",
")  c #D58592",
"_  c #D48A96",
"`  c #CF9EA7",
"'  c #CF9EA8",
"]  c #CDA5AE",
"[  c #CEA5AE",
"{  c #CDA7B0",
"}  c #CDA8B0",
"|  c #CDA9B1",
" . c #CCAAB2",
".. c #CDAAB2",
"X. c #CBB1B8",
"o. c #DFD89A",
"O. c #DFD89B",
"+. c #E4D690",
"@. c #E0D899",
"#. c #E0D89A",
"$. c #D7DCAD",
"%. c #D7DCAE",
"&. c #D3DDB6",
"*. c #D3DDB7",
"=. c #C8BDC3",
"-. c #C8BEC3",
";. c #C8BFC4",
":. c #96D9D4",
">. c #97D9D4",
",. c #98D9D4",
"<. c #98D9D5",
"1. c #99DAD5",
"2. c #9BDAD6",
"3. c #9CDAD6",
"4. c #9CDBD6",
"5. c #9DDBD7",
"6. c #9EDBD7",
"7. c #9FDCD8",
"8. c #A0DCD8",
"9. c #A2DDD9",
"0. c #A3DDD9",
"q. c #A4DDDA",
"w. c #A6DEDB",
"e. c #AADFDC",
"r. c #AADFDD",
"t. c #ABDFDD",
"y. c #ABE0DD",
"u. c #ADE0DE",
"i. c #AEE0DE",
"p. c #B0E1DF",
"a. c #B1E1E0",
"s. c #B2E2E0",
"d. c #B3E2E1",
"f. c #B4E2E1",
"g. c #B5E3E1",
"h. c #B6E3E2",
"j. c #B7E3E2",
"k. c #B8E4E3",
"l. c #B9E4E3",
"z. c #BAE4E4",
"x. c #BBE5E4",
"c. c #BCE5E4",
"v. c #BCE5E5",
"b. c #BDE5E5",
"n. c #BFE5E5",
"m. c #BDE6E5",
"M. c #BEE6E5",
"N. c #BEE6E6",
"B. c #BFE6E6",
"V. c #BEE6E7",
"C. c #BFE6E7",
"Z. c #BFE7E7",
"A. c #BFE8E7",
"S. c #BEE6E8",
"D. c #BEE8E8",
"F. c #BFE8E8",
"G. c #BEE9E8",
"H. c #C7C4C8",
"J. c #C6C7CB",
"K. c #C5CCCF",
"L. c #C5CCD0",
"P. c #C5CDD0",
"I. c #C4D1D4",
"U. c #C2D6D8",
"Y. c #C3D6D8",
"T. c #C2D6D9",
"R. c #C2D7D9",
"E. c #C2D8DA",
"W. c #C2D9DA",
"Q. c #CCE0C8",
"!. c #C9E2CF",
"~. c #C5E3D7",
"^. c #C6E3D7",
"/. c #C8E2D1",
"(. c #C3E4DD",
"). c #C0E1E1",
"_. c #C0E1E2",
"`. c #C0E3E3",
"'. c #C0E3E4",
"]. c #C0E4E4",
"[. c #C0E6E6",
/* pixels */
"                                                    ,.7.0.e.p.j.z.n.n.Z.n.Z.                                                    ",
"                                            ,.>.4.8.i.k.z.Z.].Z.Z.Z.Z.n.Z.n.Z.Z.Z.n.                                            ",
"                                        >.,.7.y.j.Z.Z.Z.Z.n.Z.Z.n.Z.n.Z.n.Z.Z.Z.Z.Z.Z.Z.                                        ",
"                                  ,.>.>.3.i.z.].Z.Z.Z.Z.n.Z.n.Z.Z.n.Z.n.Z.n.Z.n.Z.Z.Z.].Z.Z.Z.                                  ",
"                                ,.,.,.e.z.Z.n.Z.n.Z.].S.].F.Z.Z.Z.Z.Z.Z.n.Z.n.Z.Z.Z.Z.].Z.n.Z.n.                                ",
"                            ,.>.,.8.z.Z.Z.n.Z.Z.Z.n.].].A.F.F.S.Z.F.A.].Z.n.Z.n.Z.Z.c.].n.Z.n.Z.Z.Z.                            ",
"                          ,.>.,.e.c.'.Z.c.].Z.Z.Z.F.Z.c.W.L.H.;.;.H.K.R.c.Z.Z.Z.'.].Z.n.Z.n.Z.n.Z.c.].                          ",
"                      ,.,.,.,.a.Z.Z.Z.Z.Z.Z.Z.Z.K.} ( v g 7 5 3 3 5 7 d z ( } K.c.Z.Z.Z.n.Z.n.Z.Z.Z.].].S.                      ",
"                    >.>.>.5.a.F.c.Z.n.Z.Z.W. .~ a & o o o o o # o o & o o o & p ~  .j.'.S.Z.Z.Z.Z.n.Z.Z.Z.Z.                    ",
"                  ,.>.>.5.d.Z.Z.Z.Z.Z.R.' u & o # # # $ & & & & & o o & $ $ # # o & h ` W.F.Z.Z.n.Z.n.Z.Z.Z.Z.                  ",
"                ,.>.>.7.s.Z.Z.Z.Z.Z.X.k & o $ $ $ $ $ $ o & & o $ $ & & $ $ $ $ & o o & l X.c.Z.Z.n.Z.Z.c.].Z.n.                ",
"              ,.>.>.,.a.'.Z.Z.Z.R.) 2 o $ $ $ $ $ $ $ $ # & # # $ $ $ # $ $ $ $ & & # & o - ( U.Z.Z.Z.Z.].].n.Z.].              ",
"              >.,.,.e.Z.].Z.Z.J.x o # $ $ $ # # $ # $ # o # # # # # # # # # # # o & o & & o # x J.Z.Z.Z.Z.n.Z.n.Z.              ",
"            >.>.>.0.c.Z.Z.Z.=.y o $ $ $ $ $ $ # # # $ 1 8 q e t t e q 9 1 $ # # o & & # o & $ o y =.Z.n.Z.Z.n.Z.Z.Z.            ",
"          ,.>.,.3.j.Z.Z.F.=.d o $ $ $ $ $ $ # # 1 q N Z S L I I I I P S Z N w 1 # # # & & & & $ o d =.Z.Z.Z.].].Z.Z.Z.          ",
"          >.>.,.t.n.Z.F.J.y o $ $ $ $ $ # # , e C P I I I I I L P P P I I I P C e 1 # # & o # $ o o y J.F.Z.Z.].c.Z.F.          ",
"        ,.>.>.8.A.Z.A.U.x . $ $ $ $ # # & 0 B P I I L I L I L I I L I L L I I I J C 0 # # $ $ # o o o x R.].S.Z.Z.Z.n.Z.        ",
"      ,.>.>.>.a.[.[.Z.( o o $ $ $ $ # : t S P P I L I L I L I L L I L I I L I L L F S t : # $ & & & & o ( ].].F.Z.Z.Z.n.Z.      ",
"      ,.:.:.8.Z.[.[.X.3 o $ $ $ $ o , n P P P P L I L L L F L F U F L L L I L I L L P P n , & # o & & o 3 X.S.Z.Z.Z.n.Z.Z.      ",
"      >.,.,.t.Z.].W.k @ $ $ $ $ $ : n P P P P P I L I F U F Y ! ! P F F U L I L F L P P P n : o & & o & o l W.[.Z.n.Z.n.Z.      ",
"    ,.,.:.3.z.].'.` @ o $ # # # $ t P I P P P P U U F R o.*.Q.!./.Q.*.O.W L L I I P P P I P t o & # $ $ $ & ' [.Z.Z.].c.Z.c.    ",
"    :.:.:.w.Z.F.j.i @ @ $ # # # 0 S P P P P P P U ! $.^.Z.S.n.Z.S.S.S.Z.~.$.R L P P P P P P S 0 # $ $ $ # # h j.Z.].].Z.Z.Z.    ",
"  ,.:.,.,.p.].F. .& $ $ $ $ # , B F P P F L P P +.W.n.Z.n.Z.Z.c.n.Z.Z.Z.Z.Z./.+.P P P P P P I B , # # $ $ $ &  .F.Z.Z.Z.Z.F.].  ",
"  ,.,.,.3.z.Z.Z.~ o $ $ $ $ # e P I P P I L L o.(.S.Z.n.Z.n.Z.Z.Z.n.Z.Z.Z.Z.z.(.o.P P P P P P P e # # $ $ $ o ~ `.Z.Z.Z.Z.[.].  ",
"  >.>.>.8.[.[.P.a # & o $ # 1 C I P P P L F +.(.Z.n.Z.n.Z.Z.Z.Z.n.Z.Z.Z.n.Z.n.Z.(.+.L P P P P I C 1 # $ $ $ # p K.A.Z.Z.Z.Z.c.  ",
"  ,.>.>.y.].G...- & & & $ # q P P P P P L W /.Z.n.Z.n.Z.Z.Z.Z.Z.Z.Z.Z.Z.Z.n.Z.n.S./.R P P P P P J q # $ $ $ $ & } F.Z.Z.Z.Z.].  ",
">.>.>.>.p.].Z.( o & o & $ $ N I P P P P P $.v.Z.n.Z.Z.n.Z.I.] _ _ ] I.Z.n.Z.n.Z.Z.n.$.P P P P P I N $ $ $ $ # o ( ].].F.Z.Z.].[.",
",.>.>.,.j.].c.x o & o & # 1 Z I P I F L W ~.Z.n.Z.n.Z.n.] y & o o o y { n.n.Z.n.n.Z.~.T L P P P I Z 1 # $ $ # o v c.S.].Z.Z.Z.F.",
",.>.>.,.z.[.W.y o o $ $ # 8 S P P P P F o.Z.n.Z.n.Z.S.} 2 o $ $ $ $ # 4 ] S.Z.Z.Z.n.Z.o.L P P P P S 8 # o & & # d R.Z.n.Z.n.Z.n.",
",.>.>.5.z.F.K.7 # # $ $ # q P P P P I F &.Z.Z.n.n.Z.P.y o & $ $ $ $ # o y P.Z.Z.c.Z.n.*.F P P P P P q O & & o $ 7 K.Z.Z.n.Z.n.Z.",
",.>.>.7.Z.F.J.2 o & # $ # e P P P P P Y Q.S.Z.Z.Z.F.] & $ $ $ $ $ $ o & $ ] A.Z.Z.Z.S.Q.Y F P P P P e # & o & o 5 J.Z.Z.Z.n.Z.n.",
">.>.>.7.Z.S.-.2 & # $ $ # t I P P P L ! !.Z.Z.n.n.S._ o $ $ $ $ $ $ & o o _ Z.Z.Z.Z.Z.!.! F P P P P t # & o & o 3 =.Z.Z.n.Z.n.Z.",
">.>.>.7.Z.F.;.3 # & & & # b I P I L L ! !.S.n.Z.Z.A._ . $ $ $ $ $ $ $ $ . _ A.Z.Z.n.Z.!.! F P P P I b # $ $ $ # 2 H.A.Z.Z.Z.n.Z.",
">.>.>.5.z.[.H.5 # & o o # e P P L L L P Q.n.Z.n.Z.A.] $ $ $ $ # $ $ $ # $ ] m.Z.n.Z.S.Q.P L P P P P e # $ $ $ # 2 H.Z.n.Z.n.Z.n.",
",.>.>.7.z.[.P.7 # # # & # q P P I L L L *.S.n.Z.Z.Z.I.y # # # & $ $ $ # y I.A.Z.Z.n.z.*.P P P P P J q # $ $ # # 7 K.Z.Z.n.Z.n.Z.",
",.>.>.2.z.F.R.h # $ # # # 8 S I L I F F o.Z.Z.n.n.Z.Z.} 2 # & o $ $ # 2 ] Z.Z.Z.Z.Z.Z.o.L P P P P S 8 # $ $ # # y U.Z.Z.Z.n.Z.n.",
",.>.>.,.k.F.c.v . $ $ $ # 1 Z I I L I L R ~.S.Z.Z.n.Z.c. .y o o o & d ] Z.Z.n.Z.Z.n.~.T L P P P I Z 1 o # & # o x ).Z.n.n.Z.n.Z.",
",.>.>.>.a.].].( . # $ $ # & M I L I L I L $.Z.Z.n.Z.c.Z.Z.P.] _ _ ] I.Z.Z.n.Z.n.Z.Z.$.L F P P P I M & & & # & o ( Z.n.Z.Z.n.Z.n.",
"  >.>.>.y.A.A. .$ $ $ $ & # q P I L I L F R /.n.n.Z.].Z.Z.Z.S.S.S.F.Z.Z.Z.n.n.Z.Z./.R L I P P P P q # # o o & & } F.Z.n.Z.Z.n.  ",
"  >.>.>.8.z.A.K.a # $ $ # # 1 V I I L I L F +.(.Z.n.Z.Z.Z.Z.Z.Z.Z.Z.n.Z.n.Z.c.Z.(.+.U P P P P I V 1 # & & & # p P.A.n.Z.n.Z.Z.  ",
"  ,.>.>.7.z.S.].~ o & $ $ $ # e L I I L I L I o.(.Z.Z.Z.n.Z.Z.n.Z.n.Z.n.Z.Z.Z.(.o.L L L P P P P e # # & # & o / c.].Z.Z.Z.n.Z.  ",
"  ,.>.>.>.a.Z.F. .& $ $ $ $ # 1 V I L I L I I L +./.Z.Z.Z.n.n.Z.Z.Z.n.Z.Z.Z./.+.L L I F P P I B , # $ & & & & } F.Z.].].Z.Z.Z.  ",
"    >.>.:.w.Z.Z.W.i o $ $ $ $ o 0 S I L L I L I U R $.~.n.Z.S.n.n.Z.Z.Z.~.$.T F P P P P P P S 0 # # & o # o i W.Z.Z.Z.c.Z.Z.    ",
"    ,.>.:.3.z.Z.F.` $ $ $ $ $ $ & t L L I L I L F L I T o.*.Q.!.!.Q.*.o.T F L P P P P P P P t & $ # & o & & ' Z.Z.Z.Z.Z.Z.Z.    ",
"      ,.,.,.i.].Z.R.l o $ $ $ # # & n P I L L I P P P L L P Y ! ! P P L L P P P P P F I P n : # $ $ $ $ o l W.Z.c.Z.Z.Z.Z.      ",
"      ,.:.:.6.Z.Z.Z.X.2 # $ $ & & # , n L I I L P P P P F I F L P P P P P P P P P P L L n , o $ $ $ $ # 3 X.F.Z.].Z.Z.Z.c.      ",
"      ,.:.,.:.p.].Z.c.) # $ o & o & o : t S I I I P P P F I I I P P P P P P P P P I S t % $ $ $ $ $ $ # ( `.Z.Z.].].F.Z.].      ",
"        ,.:.,.8.c.Z.Z.R.x o & & o & $ o $ 0 B L I P P P P P I I P P P P P P P I P B 0 $ $ $ $ $ $ $ . x R.Z.Z.F.].S.[.].        ",
"          >.>.>.i.Z.Z.Z.J.y o o $ $ $ $ $ o , e C J I I L L L F L I I L I I L C e 1 o $ $ $ $ $ $ . y H.Z.Z.Z.n.Z.n.Z.          ",
"          ,.>.>.,.j.Z.Z.Z.=.y o $ $ $ $ # & # # 1 q N Z S J F F I L L S Z M q < # o $ $ $ $ $ $ . y -.A.n.Z.n.Z.n.Z.Z.          ",
"            >.>.,.8.Z.Z.Z.Z.=.y o & & & & & o # # # $ 1 8 q e t b r q 8 < $ $ $ # # $ $ $ $ $ o y -.A.Z.Z.Z.].c.Z.Z.            ",
"              >.,.,.i.Z.Z.Z.Z.J.x o o & o & & & # $ # # # # # # # # # o $ $ $ $ o & $ $ $ $ o z J.Z.Z.Z.Z.Z.].Z.n.              ",
"              ,.>.>.4.a.c.].].[.U.( - o o & & # $ $ $ $ $ $ $ $ # & o & $ $ $ $ & & & # . 2 ( U.Z.Z.Z.n.Z.n.Z.Z.Z.              ",
"                ,.>.>.,.p.].F.[.Z.c.X.l & o # & $ $ $ $ $ $ $ $ & # o & $ & $ $ & o # & l X.n.Z.n.Z.n.Z.n.Z.Z.Z.                ",
"                  ,.>.>.4.g.S.].Z.Z.F.W.' i : o # $ $ # $ # $ $ & & & & o o @ @ . & u ` W.Z.n.Z.Z.n.Z.n.Z.n.Z.                  ",
"                    >.>.>.7.a.F.Z.Z.Z.S.F.E. ./ a & o o # # # # o o o o . @ & 7 / [ j.A.Z.n.Z.n.n.Z.n.Z.n.Z.                    ",
"                      2.>.>.2.a.Z.Z.Z.n.Z.Z.F.].P.} ( x f 7 6 2 2 6 7 y x ( } P.`.Z.Z.Z.n.Z.n.Z.c.Z.Z.Z.Z.                      ",
"                          >.>.,.t.Z.Z.Z.Z.n.].S.A.Z.Z.`.R.K.J.-.-.J.K.U.c.].F.Z.Z.n.Z.n.Z.n.Z.n.].Z.Z.                          ",
"                            ,.>.,.8.j.Z.n.Z.c.].Z.Z.Z.n.Z.A.Z.Z.S.Z.A.Z.Z.n.Z.Z.n.Z.n.Z.n.Z.n.Z.].].                            ",
"                                ,.,.,.t.z.Z.].].Z.Z.n.Z.Z.Z.n.Z.Z.Z.Z.Z.n.Z.Z.Z.Z.n.Z.n.Z.n.Z.n.                                ",
"                                  ,.,.,.3.i.x.Z.Z.n.Z.n.Z.n.Z.n.n.Z.n.Z.Z.n.Z.n.Z.Z.n.Z.F.].S.                                  ",
"                                        ,.,.3.y.j.Z.n.Z.Z.Z.n.Z.Z.n.Z.n.n.Z.n.Z.Z.Z.Z.n.                                        ",
"                                            ,.>.,.w.t.z.Z.Z.].].n.Z.n.Z.Z.Z.Z.n.Z.Z.                                            ",
"                                                    ,.3.8.y.a.p.z.n.Z.n.Z.Z.                                                    "
};
